<svg width="114" height="27" viewBox="0 0 114 27" fill="none" xmlns="http://www.w3.org/2000/svg">
<path d="M0.67627 9.67291L10.9416 9.67496L17.1836 9.67602V3.49213L0.67627 9.67291Z" fill="#FF9D28"/>
<path d="M17.1835 3.49214V25.3244L24.9797 0.572113L17.1835 3.49214Z" fill="#68C5ED"/>
<path d="M17.1835 9.67602L10.9416 9.67496L17.1835 25.3244V9.67602Z" fill="#044D80"/>
<path d="M0.67627 9.67291L12.5423 13.6904L10.9416 9.67496L0.67627 9.67291Z" fill="#E54747"/>
<path d="M38.4915 19.5774C38.401 19.6679 38.2502 19.7808 38.0393 19.9164C37.8281 20.0522 37.5532 20.1878 37.214 20.3236C36.8749 20.4591 36.4601 20.5757 35.9705 20.6741C35.4804 20.7718 34.9191 20.8209 34.286 20.8209C33.0649 20.8209 32.0097 20.6249 31.1205 20.2332C30.2309 19.8415 29.4961 19.2947 28.916 18.5939C28.3356 17.8929 27.9099 17.0641 27.6385 16.1066C27.3672 15.1495 27.2316 14.0983 27.2316 12.9525C27.2316 11.8072 27.3785 10.748 27.6725 9.77582C27.9664 8.80351 28.4072 7.96349 28.9951 7.25469C29.583 6.54642 30.3178 5.99238 31.1997 5.5928C32.0815 5.19367 33.1176 4.99365 34.3086 4.99365C34.8965 4.99365 35.4278 5.04658 35.9027 5.15191C36.3775 5.25746 36.7919 5.38192 37.1463 5.52499C37.5002 5.66843 37.7943 5.81886 38.0281 5.97719C38.2616 6.13545 38.4387 6.26766 38.5595 6.37283C38.6951 6.49372 38.8117 6.63679 38.9099 6.80241C39.0078 6.96848 39.0569 7.14937 39.0569 7.34513C39.0569 7.64683 38.9438 7.94815 38.7177 8.24955C38.4917 8.55125 38.2429 8.83009 37.9715 9.08615C37.7906 8.90527 37.5872 8.72089 37.3611 8.53226C37.135 8.34386 36.8824 8.17824 36.6036 8.0348C36.3246 7.89173 36.008 7.77122 35.654 7.67303C35.2996 7.57515 34.904 7.52602 34.467 7.52602C33.6982 7.52602 33.0539 7.68078 32.5338 7.98954C32.0137 8.29868 31.5954 8.70176 31.2789 9.19922C30.9624 9.69669 30.7362 10.2658 30.6005 10.9063C30.4649 11.5471 30.3971 12.199 30.3971 12.8621C30.3971 13.5708 30.4649 14.2491 30.6005 14.897C30.7362 15.5452 30.9697 16.1181 31.3015 16.6154C31.6328 17.1127 32.0664 17.5123 32.6016 17.8136C33.1364 18.1154 33.8034 18.2659 34.6026 18.2659C35.0244 18.2659 35.4127 18.2133 35.767 18.1078C36.121 18.0023 36.434 17.8741 36.7053 17.7231C36.9766 17.5728 37.2141 17.4146 37.4175 17.2486C37.621 17.0827 37.7906 16.9398 37.9263 16.8189C38.0168 16.9246 38.122 17.0528 38.2428 17.2033C38.3643 17.3554 38.4775 17.5139 38.582 17.6782C38.6873 17.8442 38.7777 18.0099 38.8533 18.1754C38.9285 18.3416 38.9663 18.4921 38.9663 18.6275C38.9663 18.8238 38.9285 18.9895 38.8533 19.1251C38.7777 19.2608 38.6571 19.4117 38.4915 19.5774ZM50.1436 17.8433C50.1436 19.0413 50.3177 19.9133 50.6667 20.4592C50.3938 20.5652 50.1397 20.6411 49.9047 20.6866C49.6694 20.7321 49.4232 20.7548 49.1654 20.7548C48.6196 20.7548 48.2062 20.6486 47.9258 20.4364C47.6451 20.2243 47.467 19.921 47.3913 19.5265C47.0575 19.8757 46.6178 20.1712 46.072 20.4139C45.5261 20.6561 44.8586 20.7777 44.0703 20.7777C43.6608 20.7777 43.2514 20.7209 42.842 20.6079C42.4324 20.494 42.0608 20.3092 41.7273 20.0525C41.3935 19.7953 41.1207 19.4514 40.9085 19.0205C40.6959 18.5897 40.59 18.0645 40.59 17.4448C40.59 16.6739 40.7756 16.0464 41.1473 15.5629C41.5188 15.0789 41.985 14.6973 42.5463 14.4176C43.1072 14.1381 43.7138 13.9458 44.366 13.8397C45.0179 13.7338 45.6171 13.6659 46.163 13.6353C46.345 13.6204 46.5231 13.6126 46.6976 13.6126H47.1866V13.1985C47.1866 12.6156 47.0309 12.2016 46.7203 11.9564C46.4092 11.7111 45.9049 11.5881 45.2076 11.5881C44.5554 11.5881 43.9753 11.6944 43.4675 11.9065C42.9592 12.1191 42.4627 12.3615 41.9776 12.6345C41.765 12.3767 41.5943 12.0925 41.4658 11.7815C41.3368 11.4709 41.2724 11.2395 41.2724 11.0877C41.2724 10.8755 41.3897 10.6708 41.625 10.4735C41.86 10.2767 42.1823 10.0982 42.5918 9.939C43.0013 9.77976 43.4711 9.65113 44.0022 9.55233C44.5327 9.45384 45.0939 9.40448 45.6854 9.40448C46.5042 9.40448 47.198 9.48801 47.7666 9.65469C48.3353 9.82176 48.7978 10.0794 49.1542 10.428C49.5104 10.7771 49.7644 11.2129 49.9162 11.736C50.0676 12.2592 50.1437 12.8698 50.1437 13.5671L50.1436 17.8433ZM47.2319 15.2047H46.9136C46.8072 15.2047 46.701 15.2126 46.5951 15.2276C46.2158 15.2581 45.8404 15.3035 45.4692 15.3639C45.0974 15.4247 44.7675 15.5309 44.4797 15.6825C44.1915 15.8342 43.9565 16.0315 43.7746 16.2738C43.5925 16.5166 43.5016 16.8276 43.5016 17.2065C43.5016 17.6312 43.6228 17.9911 43.8655 18.2869C44.1079 18.5827 44.5173 18.7305 45.0938 18.7305C45.3817 18.7305 45.6548 18.6928 45.9127 18.6166C46.1704 18.5411 46.3978 18.4425 46.5951 18.3211C46.792 18.1998 46.9477 18.0672 47.0614 17.9229C47.1751 17.779 47.232 17.6464 47.232 17.525L47.2319 15.2047ZM55.8072 10.7237C56.0489 10.4358 56.427 10.1437 56.9409 9.84788C57.4549 9.55218 58.1049 9.40433 58.8911 9.40433C59.4506 9.40433 59.9834 9.49917 60.4899 9.68864C60.996 9.87841 61.4459 10.1856 61.839 10.6099C62.2321 11.0346 62.5457 11.5958 62.7802 12.2931C63.0145 12.9909 63.1317 13.8478 63.1317 14.8635C63.1317 16.0463 62.9955 17.0209 62.7235 17.7865C62.4512 18.5525 62.1 19.1591 61.6693 19.6063C61.2384 20.0536 60.7582 20.3683 60.2294 20.5502C59.7002 20.7321 59.171 20.8233 58.6421 20.8233C58.2036 20.8233 57.8217 20.7739 57.497 20.6754C57.1718 20.5766 56.896 20.4671 56.6692 20.3456C56.4425 20.2244 56.2687 20.1032 56.1479 19.9816C56.027 19.8604 55.9513 19.7768 55.9211 19.7312V25.3229H52.8275V9.72273C52.9036 9.70785 52.9954 9.69259 53.1026 9.67732C53.1944 9.66244 53.3013 9.65097 53.4236 9.64315C53.5458 9.63571 53.6909 9.63184 53.8589 9.63184C54.3629 9.63184 54.7908 9.71537 55.1423 9.88205C55.4936 10.0491 55.7155 10.3295 55.8072 10.7237ZM59.9016 14.9317C59.9016 14.4768 59.8639 14.0525 59.7886 13.658C59.7132 13.2639 59.5889 12.9226 59.4154 12.6344C59.242 12.3465 59.008 12.1226 58.7141 11.9633C58.4198 11.8041 58.062 11.7246 57.64 11.7246C57.0068 11.7246 56.5657 11.8461 56.3168 12.0884C56.0681 12.3312 55.9437 12.5967 55.9437 12.8846V17.707C56.0641 17.8285 56.2787 17.9723 56.588 18.1391C56.8972 18.3061 57.2551 18.3892 57.6624 18.3892C58.4315 18.3892 58.9969 18.0862 59.3588 17.4794C59.7208 16.873 59.9016 16.0236 59.9016 14.9317ZM65.5193 18.8443C65.413 18.5411 65.3448 18.2225 65.3146 17.8888C65.2841 17.5554 65.2691 17.2219 65.2691 16.8878V6.33349C65.3751 6.31861 65.4888 6.30335 65.6103 6.28801C65.7161 6.27312 65.8299 6.26181 65.9514 6.25391C66.0727 6.24647 66.1939 6.2426 66.3153 6.2426C66.5578 6.2426 66.8006 6.26538 67.0433 6.31079C67.2857 6.35635 67.5056 6.44732 67.7031 6.58371C67.9 6.72017 68.0591 6.90614 68.1806 7.14101C68.3019 7.37627 68.3626 7.68343 68.3626 8.06221V9.67717H71.5473V11.9747H68.3626V16.8254C68.3626 17.8832 68.7948 18.412 69.6592 18.412C69.8715 18.412 70.0722 18.378 70.262 18.3096C70.4515 18.2414 70.622 18.1657 70.7738 18.0822C70.9253 17.9989 71.0581 17.9117 71.1719 17.8206C71.2857 17.7296 71.3652 17.6615 71.4107 17.616C71.6382 17.9498 71.8123 18.2387 71.9339 18.4826C72.0551 18.7267 72.1158 18.9558 72.1158 19.1699C72.1158 19.3691 72.0364 19.5644 71.877 19.7556C71.7176 19.9468 71.4938 20.1231 71.2058 20.2837C70.9177 20.4443 70.5691 20.5744 70.1596 20.674C69.7502 20.7735 69.3026 20.8234 68.8175 20.8234C67.8771 20.8234 67.1455 20.6413 66.6224 20.2774C66.0993 19.9133 65.7314 19.4356 65.5193 18.8443ZM79.3822 18.5485C79.7625 18.5485 80.0973 18.507 80.3867 18.4233C80.6756 18.3403 80.9343 18.2378 81.1626 18.1165C81.3907 17.9953 81.5888 17.8625 81.7562 17.7184C81.9235 17.5744 82.0756 17.4418 82.2129 17.3202C82.3952 17.5476 82.5854 17.8398 82.7834 18.1958C82.9811 18.5525 83.0801 18.8443 83.0801 19.0716C83.0801 19.4054 82.8904 19.7087 82.5116 19.9816C82.1931 20.2244 81.7416 20.4329 81.1581 20.607C80.5741 20.7813 79.8878 20.8686 79.0996 20.8686C78.3864 20.8686 77.6852 20.7777 76.9955 20.5957C76.3054 20.4138 75.691 20.0953 75.153 19.6402C74.6145 19.1855 74.1784 18.5752 73.8449 17.8093C73.5113 17.0436 73.3446 16.077 73.3446 14.909C73.3446 13.9536 73.4925 13.1313 73.788 12.4411C74.0838 11.7512 74.4779 11.1787 74.9711 10.7237C75.4636 10.2688 76.0209 9.93544 76.6428 9.72281C77.2644 9.51072 77.9015 9.4044 78.5536 9.4044C79.4028 9.4044 80.123 9.53737 80.7144 9.80247C81.306 10.0679 81.7871 10.4244 82.1589 10.8716C82.5303 11.3189 82.7994 11.8308 82.9664 12.407C83.133 12.9834 83.2166 13.5898 83.2166 14.2267V14.5451C83.2166 14.6667 83.2127 14.7953 83.2052 14.9317C83.1975 15.0684 83.19 15.2012 83.1826 15.3298C83.1747 15.459 83.1633 15.5612 83.1485 15.637H76.4381C76.4989 16.4711 76.7576 17.1648 77.214 17.7184C77.6702 18.2721 78.393 18.5485 79.3822 18.5485ZM80.4187 13.9309C80.4187 13.203 80.2775 12.6116 79.9954 12.1567C79.7132 11.7018 79.2059 11.4742 78.4742 11.4742C77.8486 11.4742 77.3492 11.6904 76.9757 12.1226C76.6017 12.5548 76.4153 13.1575 76.4153 13.9308L80.4187 13.9309ZM88.6001 10.7812C88.6909 10.6458 88.8122 10.4955 88.964 10.3298C89.1154 10.1642 89.3013 10.0138 89.5213 9.87848C89.741 9.74309 89.9837 9.63001 90.2492 9.5398C90.5143 9.44951 90.7987 9.4044 91.1023 9.4044C91.2842 9.4044 91.4776 9.41967 91.6822 9.44951C91.887 9.47974 92.0764 9.53623 92.2508 9.6187C92.4251 9.70155 92.5656 9.81416 92.6717 9.95708C92.7776 10.1 92.831 10.2766 92.831 10.487C92.831 10.8179 92.7474 11.1979 92.5807 11.6269C92.4137 12.0562 92.2472 12.4223 92.0804 12.7255C91.8223 12.5132 91.5645 12.3502 91.3069 12.2364C91.0489 12.1227 90.7456 12.0658 90.397 12.0658C89.9269 12.0658 89.5327 12.2027 89.2144 12.4763C88.8956 12.75 88.7365 13.077 88.7365 13.4572V20.8208H85.6431V9.72273C85.7187 9.70785 85.8097 9.69259 85.9159 9.67732C86.0069 9.66244 86.113 9.65097 86.2344 9.64315C86.3557 9.63571 86.4996 9.63184 86.6666 9.63184C87.1517 9.63184 87.5725 9.72592 87.929 9.91372C88.2851 10.1013 88.5091 10.3906 88.6001 10.7812ZM97.3954 10.7812C97.4864 10.6458 97.6076 10.4955 97.7594 10.3298C97.9108 10.1642 98.0967 10.0138 98.3167 9.87848C98.5364 9.74309 98.779 9.63001 99.0445 9.5398C99.3097 9.44951 99.594 9.4044 99.8975 9.4044C100.079 9.4044 100.273 9.41967 100.477 9.44951C100.682 9.47974 100.872 9.53623 101.046 9.6187C101.22 9.70155 101.361 9.81416 101.467 9.95708C101.573 10.1 101.626 10.2766 101.626 10.487C101.626 10.8179 101.543 11.1979 101.376 11.6269C101.209 12.0562 101.042 12.4223 100.876 12.7255C100.618 12.5132 100.36 12.3502 100.102 12.2364C99.8443 12.1227 99.541 12.0658 99.1924 12.0658C98.7223 12.0658 98.328 12.2027 98.0096 12.4763C97.6911 12.75 97.5319 13.077 97.5319 13.4572V20.8208H94.4384V9.72273C94.5141 9.70785 94.6051 9.69259 94.7114 9.67732C94.8024 9.66244 94.9085 9.65097 95.0298 9.64315C95.151 9.63571 95.2949 9.63184 95.4619 9.63184C95.9472 9.63184 96.368 9.72592 96.7243 9.91372C97.0804 10.1013 97.3043 10.3906 97.3954 10.7812ZM112.158 17.8433C112.158 19.0413 112.332 19.9133 112.681 20.4592C112.408 20.5652 112.154 20.6411 111.919 20.6866C111.684 20.7321 111.438 20.7548 111.18 20.7548C110.634 20.7548 110.221 20.6486 109.94 20.4364C109.66 20.2243 109.482 19.921 109.406 19.5265C109.072 19.8757 108.632 20.1712 108.086 20.4139C107.541 20.6561 106.873 20.7777 106.085 20.7777C105.675 20.7777 105.266 20.7209 104.856 20.6079C104.447 20.494 104.075 20.3092 103.742 20.0525C103.408 19.7953 103.135 19.4514 102.923 19.0205C102.711 18.5897 102.605 18.0645 102.605 17.4448C102.605 16.6739 102.79 16.0464 103.162 15.5629C103.533 15.0789 104 14.6973 104.561 14.4176C105.122 14.1381 105.728 13.9458 106.381 13.8397C107.032 13.7338 107.632 13.6659 108.178 13.6353C108.36 13.6204 108.538 13.6126 108.712 13.6126H109.201V13.1985C109.201 12.6156 109.045 12.2016 108.735 11.9564C108.424 11.7111 107.92 11.5881 107.222 11.5881C106.57 11.5881 105.99 11.6944 105.482 11.9065C104.974 12.1191 104.477 12.3615 103.992 12.6345C103.78 12.3767 103.609 12.0925 103.48 11.7815C103.351 11.4709 103.287 11.2395 103.287 11.0877C103.287 10.8755 103.404 10.6708 103.64 10.4735C103.875 10.2767 104.197 10.0982 104.606 9.939C105.016 9.77976 105.486 9.65113 106.017 9.55233C106.547 9.45384 107.108 9.40448 107.7 9.40448C108.519 9.40448 109.212 9.48801 109.781 9.65469C110.35 9.82176 110.812 10.0794 111.169 10.428C111.525 10.7771 111.779 11.2129 111.931 11.736C112.082 12.2592 112.158 12.8698 112.158 13.5671V17.8433ZM109.247 15.2047H108.928C108.822 15.2047 108.716 15.2126 108.61 15.2276C108.231 15.2581 107.855 15.3035 107.484 15.3639C107.112 15.4247 106.782 15.5309 106.494 15.6825C106.206 15.8342 105.971 16.0315 105.789 16.2738C105.607 16.5166 105.516 16.8276 105.516 17.2065C105.516 17.6312 105.637 17.9911 105.88 18.2869C106.122 18.5827 106.532 18.7305 107.108 18.7305C107.396 18.7305 107.669 18.6928 107.927 18.6166C108.185 18.5411 108.412 18.4425 108.61 18.3211C108.806 18.1998 108.962 18.0672 109.076 17.9229C109.19 17.779 109.247 17.6464 109.247 17.525L109.247 15.2047Z" fill="#050505"/>
</svg>
