<svg width="129" height="132" viewBox="0 0 129 132" fill="none" xmlns="http://www.w3.org/2000/svg">
<path fill-rule="evenodd" clip-rule="evenodd" d="M115.319 38.9493H95.5106C96.0516 35.8579 97.9618 34.1306 101.848 32.1724L105.503 30.3241C112.029 26.9907 115.507 23.2392 115.507 17.1223C115.574 15.3519 115.198 13.5926 114.414 12.0026C113.63 10.4126 112.461 9.04171 111.013 8.01312C108.076 5.81282 104.488 4.73468 100.358 4.73468C97.1583 4.70083 94.0174 5.59116 91.3148 7.29803C88.7209 8.82595 86.6386 11.0844 85.3302 13.7889L91.0718 19.4987C93.2912 15.0321 96.5264 12.8318 100.777 12.8318C104.366 12.8318 106.585 14.68 106.585 17.2324C106.585 19.3777 105.503 21.1599 101.374 23.2392L99.0439 24.3723C93.9537 26.9357 90.4204 29.8511 88.3887 33.1735C86.346 36.452 85.3302 40.6765 85.3302 45.7372V47.1014H115.319V38.9603V38.9493ZM112.614 56.5517H79.8645L63.4897 84.8255H96.2394L112.614 113.099L129 84.8255L112.614 56.5517Z" fill="#FF492C"/>
<path fill-rule="evenodd" clip-rule="evenodd" d="M66.2722 103.715C56.2342 103.706 46.6095 99.7309 39.5095 92.6609C32.4094 85.5908 28.4138 76.0035 28.3992 66.002C28.4167 56.0025 32.4136 46.4179 39.5133 39.3503C46.613 32.2826 56.2361 28.3087 66.2722 28.3L79.2352 1.28031C69.6247 -0.633609 59.7076 -0.399197 50.199 1.96665C40.6904 4.33249 31.8271 8.77084 24.248 14.9617C16.6688 21.1526 10.5625 28.9419 6.36949 37.768C2.17645 46.5941 0.00101823 56.2371 0 66.002C0.00144969 74.6714 1.71684 83.2555 5.04825 91.2642C8.37966 99.273 13.2619 106.549 19.416 112.678C25.57 118.807 32.8755 123.667 40.9152 126.983C48.9549 130.298 57.5712 132.003 66.2722 132C80.3018 132.023 93.9739 127.591 105.305 119.348L90.9504 94.5729C84.093 100.474 75.3332 103.719 66.2722 103.715Z" fill="#FF492C"/>
</svg>
