<svg width="200" height="54" viewBox="0 0 200 54" fill="none" xmlns="http://www.w3.org/2000/svg">
<rect x="0.5" y="0.5" width="199" height="53" rx="11.5" fill="#FF6153"/>
<rect x="0.5" y="0.5" width="199" height="53" rx="11.5" stroke="#FF6153"/>
<path fill-rule="evenodd" clip-rule="evenodd" d="M25.5 42.5C34.0604 42.5 41 35.5604 41 27C41 18.4396 34.0604 11.5 25.5 11.5C16.9396 11.5 10 18.4396 10 27C10 35.5604 16.9396 42.5 25.5 42.5ZM23.0928 27.456L27.4328 27.4559C28.7018 27.4559 29.7305 26.4149 29.7305 25.1309C29.7305 23.8468 28.7018 22.806 27.4328 22.806H23.0928V27.456ZM20.0293 19.7059H27.4328C30.3937 19.7059 32.794 22.1347 32.794 25.1309C32.794 28.127 30.3937 30.556 27.4328 30.556H23.0928V35.2059H20.0293V19.7059Z" fill="white"/>
<path d="M61.2778 12.6694H58.0303V14.1592H60.8735V15.2842H58.0303V18H56.6855V11.5312H61.2778V12.6694ZM66.6963 15.1699H63.5498V16.8354H67.1357V18H62.2271V11.5225H66.9775V12.6694H63.5498V14.0449H66.6963V15.1699ZM71.9829 16.6685H69.5967L69.1484 18H67.7334L70.0449 11.5225H71.5742L73.8682 18H72.4004L71.9829 16.6685ZM71.605 15.5522L70.7964 13.0034L69.9614 15.5522H71.605ZM78.7329 11.5225V12.6694H76.7949V18H75.4326V12.6694H73.4858V11.5225H78.7329ZM83.3604 15.5039V11.5225H84.7358V15.5039C84.7358 16.1924 84.6289 16.7285 84.415 17.1123C84.0166 17.8154 83.2563 18.167 82.1343 18.167C81.0122 18.167 80.2505 17.8154 79.8491 17.1123C79.6353 16.7285 79.5283 16.1924 79.5283 15.5039V11.5225H80.9038V15.5039C80.9038 15.9492 80.9565 16.2744 81.062 16.4795C81.2261 16.8428 81.5835 17.0244 82.1343 17.0244C82.6821 17.0244 83.0381 16.8428 83.2021 16.4795C83.3076 16.2744 83.3604 15.9492 83.3604 15.5039ZM88.7832 15.46H87.3857V18H86.063V11.5225H89.2402C89.6943 11.5312 90.043 11.5869 90.2861 11.6895C90.5322 11.792 90.7402 11.9429 90.9102 12.1421C91.0508 12.3062 91.1621 12.4878 91.2441 12.687C91.3262 12.8862 91.3672 13.1133 91.3672 13.3682C91.3672 13.6758 91.2896 13.979 91.1343 14.2778C90.979 14.5737 90.7227 14.7832 90.3652 14.9062C90.6641 15.0264 90.875 15.1978 90.998 15.4204C91.124 15.6401 91.187 15.9771 91.187 16.4312V16.8662C91.187 17.1621 91.1987 17.3628 91.2222 17.4683C91.2573 17.6353 91.3394 17.7583 91.4683 17.8374V18H89.9785C89.9375 17.8564 89.9082 17.7407 89.8906 17.6528C89.8555 17.4712 89.8364 17.2852 89.8335 17.0947L89.8247 16.4927C89.8188 16.0796 89.7427 15.8042 89.5962 15.6665C89.4526 15.5288 89.1816 15.46 88.7832 15.46ZM89.605 14.2822C89.8745 14.1592 90.0093 13.916 90.0093 13.5527C90.0093 13.1602 89.8789 12.8965 89.6182 12.7617C89.4717 12.6855 89.252 12.6475 88.959 12.6475H87.3857V14.3877H88.9194C89.2241 14.3877 89.4526 14.3525 89.605 14.2822ZM97.0449 15.1699H93.8984V16.8354H97.4844V18H92.5757V11.5225H97.3262V12.6694H93.8984V14.0449H97.0449V15.1699ZM101.33 18H98.5391V11.5225H101.33C101.731 11.5283 102.065 11.5752 102.332 11.6631C102.786 11.8125 103.153 12.0864 103.435 12.4849C103.66 12.8071 103.814 13.1558 103.896 13.5308C103.978 13.9058 104.019 14.2632 104.019 14.603C104.019 15.4644 103.846 16.1938 103.5 16.7915C103.032 17.5972 102.308 18 101.33 18ZM102.336 13.1748C102.128 12.8232 101.716 12.6475 101.101 12.6475H99.853V16.875H101.101C101.74 16.875 102.185 16.5601 102.437 15.9302C102.575 15.5845 102.644 15.1729 102.644 14.6953C102.644 14.0361 102.541 13.5293 102.336 13.1748ZM110.413 18.1802C109.487 18.1802 108.78 17.9282 108.291 17.4243C107.634 16.8062 107.306 15.9155 107.306 14.7524C107.306 13.5659 107.634 12.6753 108.291 12.0806C108.78 11.5767 109.487 11.3247 110.413 11.3247C111.339 11.3247 112.046 11.5767 112.536 12.0806C113.189 12.6753 113.516 13.5659 113.516 14.7524C113.516 15.9155 113.189 16.8062 112.536 17.4243C112.046 17.9282 111.339 18.1802 110.413 18.1802ZM111.692 16.4399C112.005 16.0444 112.162 15.4819 112.162 14.7524C112.162 14.0259 112.004 13.4648 111.688 13.0693C111.374 12.6709 110.949 12.4717 110.413 12.4717C109.877 12.4717 109.449 12.6694 109.13 13.0649C108.811 13.4604 108.651 14.0229 108.651 14.7524C108.651 15.4819 108.811 16.0444 109.13 16.4399C109.449 16.8354 109.877 17.0332 110.413 17.0332C110.949 17.0332 111.375 16.8354 111.692 16.4399ZM119.791 18H118.438L115.792 13.3989V18H114.531V11.5225H115.95L118.53 16.0444V11.5225H119.791V18Z" fill="white"/>
<path d="M64.0186 33.5654H60.8091V39H57.6714V23.8857H64.2544C65.772 23.8857 66.9819 24.2754 67.8843 25.0547C68.7866 25.834 69.2378 27.0405 69.2378 28.6743C69.2378 30.4585 68.7866 31.7197 67.8843 32.458C66.9819 33.1963 65.6934 33.5654 64.0186 33.5654ZM65.4951 30.4175C65.9053 30.0552 66.1104 29.481 66.1104 28.6948C66.1104 27.9087 65.9019 27.3481 65.4849 27.0132C65.0747 26.6782 64.4971 26.5107 63.752 26.5107H60.8091V30.9609H63.752C64.4971 30.9609 65.0781 30.7798 65.4951 30.4175ZM76.9897 30.52C75.814 30.52 75.0244 30.9028 74.6211 31.6685C74.3955 32.0991 74.2827 32.7622 74.2827 33.6577V39H71.3398V27.8232H74.1289V29.7715C74.5801 29.0264 74.9731 28.5171 75.3081 28.2437C75.855 27.7856 76.5659 27.5566 77.4409 27.5566C77.4956 27.5566 77.54 27.5601 77.5742 27.5669C77.6152 27.5669 77.7007 27.5703 77.8306 27.5771V30.5713C77.646 30.5508 77.4819 30.5371 77.3384 30.5303C77.1948 30.5234 77.0786 30.52 76.9897 30.52ZM88.874 29.2383C89.8174 30.4209 90.2891 31.8188 90.2891 33.4321C90.2891 35.0728 89.8174 36.4775 88.874 37.6465C87.9307 38.8086 86.4985 39.3896 84.5776 39.3896C82.6567 39.3896 81.2246 38.8086 80.2812 37.6465C79.3379 36.4775 78.8662 35.0728 78.8662 33.4321C78.8662 31.8188 79.3379 30.4209 80.2812 29.2383C81.2246 28.0557 82.6567 27.4644 84.5776 27.4644C86.4985 27.4644 87.9307 28.0557 88.874 29.2383ZM84.5674 29.9355C83.7129 29.9355 83.0532 30.2397 82.5884 30.8481C82.1304 31.4497 81.9014 32.311 81.9014 33.4321C81.9014 34.5532 82.1304 35.418 82.5884 36.0264C83.0532 36.6348 83.7129 36.939 84.5674 36.939C85.4219 36.939 86.0781 36.6348 86.5361 36.0264C86.9941 35.418 87.2231 34.5532 87.2231 33.4321C87.2231 32.311 86.9941 31.4497 86.5361 30.8481C86.0781 30.2397 85.4219 29.9355 84.5674 29.9355ZM102.563 23.9062V39H99.7227V37.4517C99.3057 38.1147 98.8306 38.5967 98.2974 38.8975C97.7642 39.1982 97.1011 39.3486 96.3081 39.3486C95.0024 39.3486 93.9019 38.8223 93.0063 37.7695C92.1177 36.71 91.6733 35.353 91.6733 33.6987C91.6733 31.7915 92.1108 30.291 92.9858 29.1973C93.8677 28.1035 95.0435 27.5566 96.5132 27.5566C97.1899 27.5566 97.7915 27.707 98.3179 28.0078C98.8442 28.3018 99.2715 28.7119 99.5996 29.2383V23.9062H102.563ZM94.688 33.4834C94.688 34.5156 94.8931 35.3394 95.3032 35.9546C95.7065 36.5767 96.3218 36.8877 97.1489 36.8877C97.9761 36.8877 98.605 36.5801 99.0356 35.9648C99.4663 35.3496 99.6816 34.5532 99.6816 33.5757C99.6816 32.2085 99.3364 31.231 98.646 30.6431C98.2222 30.2876 97.73 30.1099 97.1694 30.1099C96.3149 30.1099 95.686 30.4346 95.2827 31.084C94.8862 31.7266 94.688 32.5264 94.688 33.4834ZM112.396 37.4209C112.369 37.4551 112.301 37.5576 112.191 37.7285C112.082 37.8994 111.952 38.0498 111.802 38.1797C111.344 38.5898 110.899 38.8701 110.469 39.0205C110.045 39.1709 109.546 39.2461 108.972 39.2461C107.317 39.2461 106.203 38.6514 105.629 37.4619C105.308 36.8057 105.147 35.8384 105.147 34.5601V27.8232H108.141V34.5601C108.141 35.1958 108.216 35.6743 108.367 35.9956C108.633 36.563 109.156 36.8467 109.936 36.8467C110.934 36.8467 111.617 36.4434 111.986 35.6367C112.178 35.1992 112.273 34.6216 112.273 33.9038V27.8232H115.237V39H112.396V37.4209ZM127.736 31.8325H124.742C124.688 31.4155 124.547 31.0396 124.322 30.7046C123.994 30.2534 123.484 30.0278 122.794 30.0278C121.81 30.0278 121.136 30.5166 120.774 31.4941C120.583 32.0137 120.487 32.7041 120.487 33.5654C120.487 34.3857 120.583 35.0454 120.774 35.5444C121.123 36.4741 121.779 36.939 122.743 36.939C123.426 36.939 123.912 36.7544 124.199 36.3853C124.486 36.0161 124.66 35.5376 124.722 34.9497H127.706C127.637 35.8384 127.316 36.6792 126.742 37.4722C125.826 38.7505 124.469 39.3896 122.671 39.3896C120.873 39.3896 119.55 38.8564 118.703 37.79C117.855 36.7236 117.431 35.3394 117.431 33.6372C117.431 31.7163 117.899 30.2227 118.836 29.1562C119.772 28.0898 121.064 27.5566 122.712 27.5566C124.113 27.5566 125.258 27.8711 126.147 28.5C127.042 29.1289 127.572 30.2397 127.736 31.8325ZM134.873 36.9185V39.1025L133.489 39.1538C132.108 39.2017 131.165 38.9624 130.659 38.436C130.331 38.1011 130.167 37.585 130.167 36.8877V30.0073H128.608V27.9258H130.167V24.8086H133.058V27.9258H134.873V30.0073H133.058V35.9136C133.058 36.3716 133.116 36.6587 133.232 36.7749C133.349 36.8843 133.704 36.939 134.299 36.939C134.388 36.939 134.48 36.939 134.576 36.939C134.678 36.9321 134.777 36.9253 134.873 36.9185ZM151.843 39V32.2529H145.937V39H142.81V23.8857H145.937V29.6484H151.843V23.8857H154.981V39H151.843ZM164.938 37.4209C164.91 37.4551 164.842 37.5576 164.732 37.7285C164.623 37.8994 164.493 38.0498 164.343 38.1797C163.885 38.5898 163.44 38.8701 163.01 39.0205C162.586 39.1709 162.087 39.2461 161.513 39.2461C159.858 39.2461 158.744 38.6514 158.17 37.4619C157.849 36.8057 157.688 35.8384 157.688 34.5601V27.8232H160.682V34.5601C160.682 35.1958 160.757 35.6743 160.908 35.9956C161.174 36.563 161.697 36.8467 162.477 36.8467C163.475 36.8467 164.158 36.4434 164.527 35.6367C164.719 35.1992 164.814 34.6216 164.814 33.9038V27.8232H167.778V39H164.938V37.4209ZM175.868 29.9868C174.877 29.9868 174.197 30.4072 173.828 31.248C173.636 31.6924 173.541 32.2598 173.541 32.9502V39H170.628V27.8438H173.448V29.4741C173.824 28.8999 174.18 28.4863 174.515 28.2334C175.116 27.7822 175.878 27.5566 176.801 27.5566C177.957 27.5566 178.9 27.8608 179.631 28.4692C180.37 29.0708 180.739 30.0723 180.739 31.4736V39H177.745V32.2017C177.745 31.6138 177.666 31.1626 177.509 30.8481C177.222 30.2739 176.675 29.9868 175.868 29.9868ZM188.562 36.9185V39.1025L187.178 39.1538C185.797 39.2017 184.854 38.9624 184.348 38.436C184.02 38.1011 183.856 37.585 183.856 36.8877V30.0073H182.297V27.9258H183.856V24.8086H186.748V27.9258H188.562V30.0073H186.748V35.9136C186.748 36.3716 186.806 36.6587 186.922 36.7749C187.038 36.8843 187.394 36.939 187.988 36.939C188.077 36.939 188.169 36.939 188.265 36.939C188.368 36.9321 188.467 36.9253 188.562 36.9185Z" fill="white"/>
</svg>
