<svg width="257" height="64" viewBox="0 0 257 64" fill="none" xmlns="http://www.w3.org/2000/svg">
<path d="M34 42.5031L43.2172 40.1761L47.0682 52L34 42.5031ZM55.2121 27.2201H38.9874L34 12L29.0127 27.2201H12.7879L25.9192 36.6541L20.9318 51.8742L34.0632 42.4403L42.144 36.6541L55.2121 27.2201Z" fill="#219653"/>
<path d="M58.803 22.3267V17.9091H82.0132V22.3267H73.0218V47H67.7945V22.3267H58.803ZM83.9948 47V25.1818H88.9806V28.8182H89.2078C89.6056 27.5587 90.2874 26.5881 91.2533 25.9062C92.2287 25.215 93.3414 24.8693 94.5914 24.8693C94.8755 24.8693 95.1927 24.8835 95.5431 24.9119C95.9029 24.9309 96.2012 24.964 96.4379 25.0114V29.7415C96.2201 29.6657 95.8745 29.5994 95.401 29.5426C94.937 29.4763 94.4872 29.4432 94.0516 29.4432C93.1141 29.4432 92.2713 29.6468 91.5232 30.054C90.7845 30.4517 90.2022 31.0057 89.776 31.7159C89.3499 32.4261 89.1368 33.2453 89.1368 34.1733V47H83.9948ZM113.76 37.8239V25.1818H118.902V47H113.917V43.1222H113.689C113.197 44.3437 112.387 45.3428 111.26 46.1193C110.143 46.8958 108.765 47.2841 107.127 47.2841C105.697 47.2841 104.433 46.9669 103.334 46.3324C102.245 45.6884 101.393 44.7557 100.777 43.5341C100.162 42.303 99.8541 40.8163 99.8541 39.0739V25.1818H104.996V38.2784C104.996 39.661 105.375 40.7595 106.133 41.5739C106.89 42.3883 107.884 42.7955 109.116 42.7955C109.873 42.7955 110.607 42.6108 111.317 42.2415C112.027 41.8722 112.61 41.3229 113.064 40.5938C113.528 39.8551 113.76 38.9318 113.76 37.8239ZM141.434 30.9489L136.747 31.4602C136.614 30.9867 136.382 30.5417 136.051 30.125C135.729 29.7083 135.293 29.3722 134.744 29.1165C134.195 28.8608 133.522 28.733 132.727 28.733C131.657 28.733 130.757 28.965 130.028 29.429C129.308 29.893 128.953 30.4943 128.963 31.233C128.953 31.8674 129.185 32.3835 129.659 32.7812C130.142 33.179 130.937 33.5057 132.045 33.7614L135.767 34.5568C137.831 35.0019 139.365 35.7074 140.369 36.6733C141.382 37.6392 141.894 38.9034 141.903 40.4659C141.894 41.839 141.491 43.0511 140.696 44.1023C139.91 45.1439 138.816 45.9583 137.415 46.5455C136.013 47.1326 134.403 47.4261 132.585 47.4261C129.915 47.4261 127.765 46.8674 126.136 45.75C124.507 44.6231 123.537 43.0559 123.224 41.0483L128.238 40.5653C128.466 41.5502 128.949 42.2936 129.687 42.7955C130.426 43.2973 131.387 43.5483 132.571 43.5483C133.792 43.5483 134.772 43.2973 135.511 42.7955C136.259 42.2936 136.633 41.6733 136.633 40.9347C136.633 40.3097 136.392 39.7936 135.909 39.3864C135.435 38.9792 134.697 38.6667 133.693 38.4489L129.971 37.6676C127.879 37.232 126.33 36.4981 125.326 35.4659C124.323 34.4242 123.825 33.108 123.835 31.517C123.825 30.1723 124.19 29.0076 124.929 28.0227C125.677 27.0284 126.714 26.2614 128.04 25.7216C129.375 25.1723 130.914 24.8977 132.656 24.8977C135.213 24.8977 137.225 25.4422 138.693 26.5312C140.17 27.6203 141.084 29.0928 141.434 30.9489ZM157.038 25.1818V29.1591H144.495V25.1818H157.038ZM147.592 19.9545H152.734V40.4375C152.734 41.1288 152.838 41.6591 153.047 42.0284C153.264 42.3883 153.549 42.6345 153.899 42.767C154.249 42.8996 154.638 42.9659 155.064 42.9659C155.386 42.9659 155.679 42.9422 155.944 42.8949C156.219 42.8475 156.427 42.8049 156.569 42.767L157.436 46.7869C157.161 46.8816 156.768 46.9858 156.257 47.0994C155.755 47.2131 155.139 47.2794 154.41 47.2983C153.122 47.3362 151.962 47.142 150.93 46.7159C149.898 46.2803 149.079 45.608 148.473 44.6989C147.876 43.7898 147.583 42.6534 147.592 41.2898V19.9545ZM161.339 55.1818V25.1818H166.395V28.7898H166.694C166.959 28.2595 167.333 27.696 167.816 27.0994C168.299 26.4934 168.952 25.9773 169.776 25.5511C170.6 25.1155 171.651 24.8977 172.929 24.8977C174.615 24.8977 176.135 25.3286 177.489 26.1903C178.853 27.0426 179.932 28.3068 180.728 29.983C181.533 31.6496 181.935 33.6951 181.935 36.1193C181.935 38.5152 181.542 40.5511 180.756 42.2273C179.97 43.9034 178.9 45.1818 177.546 46.0625C176.192 46.9432 174.658 47.3835 172.944 47.3835C171.694 47.3835 170.657 47.1752 169.833 46.7585C169.009 46.3419 168.346 45.84 167.844 45.2528C167.352 44.6562 166.968 44.0928 166.694 43.5625H166.481V55.1818H161.339ZM166.381 36.0909C166.381 37.5019 166.58 38.7377 166.978 39.7983C167.385 40.8589 167.967 41.6875 168.725 42.2841C169.492 42.8712 170.42 43.1648 171.509 43.1648C172.645 43.1648 173.597 42.8617 174.364 42.2557C175.131 41.6402 175.709 40.8021 176.097 39.7415C176.495 38.6714 176.694 37.4545 176.694 36.0909C176.694 34.7367 176.5 33.5341 176.111 32.483C175.723 31.4318 175.145 30.608 174.378 30.0114C173.611 29.4148 172.655 29.1165 171.509 29.1165C170.41 29.1165 169.478 29.4053 168.711 29.983C167.944 30.5606 167.361 31.3703 166.964 32.4119C166.575 33.4536 166.381 34.6799 166.381 36.0909ZM186.339 47V25.1818H191.481V47H186.339ZM188.924 22.0852C188.109 22.0852 187.409 21.8153 186.821 21.2756C186.234 20.7263 185.941 20.0682 185.941 19.3011C185.941 18.5246 186.234 17.8665 186.821 17.3267C187.409 16.7775 188.109 16.5028 188.924 16.5028C189.748 16.5028 190.448 16.7775 191.026 17.3267C191.613 17.8665 191.907 18.5246 191.907 19.3011C191.907 20.0682 191.613 20.7263 191.026 21.2756C190.448 21.8153 189.748 22.0852 188.924 22.0852ZM201.91 17.9091V47H196.768V17.9091H201.91ZM216.715 47.4261C214.584 47.4261 212.738 46.9574 211.175 46.0199C209.613 45.0824 208.401 43.7708 207.539 42.0852C206.687 40.3996 206.26 38.4299 206.26 36.1761C206.26 33.9223 206.687 31.9479 207.539 30.2528C208.401 28.5578 209.613 27.2415 211.175 26.304C212.738 25.3665 214.584 24.8977 216.715 24.8977C218.846 24.8977 220.692 25.3665 222.255 26.304C223.817 27.2415 225.025 28.5578 225.877 30.2528C226.739 31.9479 227.169 33.9223 227.169 36.1761C227.169 38.4299 226.739 40.3996 225.877 42.0852C225.025 43.7708 223.817 45.0824 222.255 46.0199C220.692 46.9574 218.846 47.4261 216.715 47.4261ZM216.743 43.3068C217.899 43.3068 218.865 42.9896 219.641 42.3551C220.418 41.7112 220.995 40.8494 221.374 39.7699C221.762 38.6903 221.956 37.4877 221.956 36.1619C221.956 34.8267 221.762 33.6193 221.374 32.5398C220.995 31.4508 220.418 30.5843 219.641 29.9403C218.865 29.2964 217.899 28.9744 216.743 28.9744C215.56 28.9744 214.575 29.2964 213.789 29.9403C213.012 30.5843 212.43 31.4508 212.042 32.5398C211.663 33.6193 211.473 34.8267 211.473 36.1619C211.473 37.4877 211.663 38.6903 212.042 39.7699C212.43 40.8494 213.012 41.7112 213.789 42.3551C214.575 42.9896 215.56 43.3068 216.743 43.3068ZM242.429 25.1818V29.1591H229.886V25.1818H242.429ZM232.983 19.9545H238.125V40.4375C238.125 41.1288 238.229 41.6591 238.437 42.0284C238.655 42.3883 238.939 42.6345 239.29 42.767C239.64 42.8996 240.028 42.9659 240.454 42.9659C240.776 42.9659 241.07 42.9422 241.335 42.8949C241.61 42.8475 241.818 42.8049 241.96 42.767L242.826 46.7869C242.552 46.8816 242.159 46.9858 241.647 47.0994C241.146 47.2131 240.53 47.2794 239.801 47.2983C238.513 47.3362 237.353 47.142 236.321 46.7159C235.289 46.2803 234.469 45.608 233.863 44.6989C233.267 43.7898 232.973 42.6534 232.983 41.2898V19.9545Z" fill="black"/>
</svg>
