<svg width="88" height="88" viewBox="0 0 88 88" fill="none" xmlns="http://www.w3.org/2000/svg">
<path d="M 53.5 44 L 53.5 11 A 8.5 8.5 0 0 0 36.5 11 L 36.5 44 A 8.5 8.5 0 0 0 53.5 44 Z M 46.16 52.42 L 75.16 48.42 A 8.5 8.5 0 0 0 72.84 31.58 L 43.84 35.58 A 8.5 8.5 0 0 0 46.16 52.42 Z M 39.19 37.79 L 8.19 66.79 A 8.5 8.5 0 0 0 19.81 79.21 L 50.81 50.21 A 8.5 8.5 0 0 0 39.19 37.79 Z M 36.53 43.23 L 33.53 76.23 A 8.5 8.5 0 0 0 50.47 77.77 L 53.47 44.77 A 8.5 8.5 0 0 0 36.53 43.23 Z M 39.2 50.21 L 69.2 78.21 A 8.5 8.5 0 0 0 80.8 65.79 L 50.8 37.79 A 8.5 8.5 0 0 0 39.2 50.21 Z" fill="#FFD400" stroke="#000000" stroke-width="3" stroke-linejoin="round" stroke-linecap="round"/>
</svg>
